<svg id="Ebene_1" data-name="Ebene 1" xmlns="http://www.w3.org/2000/svg" viewBox="0 0 432 230.31"><defs><style>.cls-1{fill:#fff;}.cls-1,.cls-2{stroke:#bfdfe7;stroke-miterlimit:10;stroke-width:20px;}.cls-2{fill:none;}.cls-3{fill:#bfdfe7;}</style></defs><title>icon</title><path class="cls-1" d="M44,240.5" transform="translate(-34 -10.69)"/><path class="cls-1" d="M147,278.5" transform="translate(-34 -10.69)"/><path class="cls-2" d="M44,240.5c0-21,46.11-38,103-38s103,17,103,38" transform="translate(-34 -10.69)"/><path class="cls-2" d="M250,241c0-21,46.11-38,103-38s103,17,103,38" transform="translate(-34 -10.69)"/><path class="cls-1" d="M44,58.69" transform="translate(-34 -10.69)"/><path class="cls-1" d="M147,96.69" transform="translate(-34 -10.69)"/><path class="cls-1" d="M250,58.69" transform="translate(-34 -10.69)"/><path class="cls-2" d="M44,58.69c0-21,46.11-38,103-38s103,17,103,38" transform="translate(-34 -10.69)"/><path class="cls-1" d="M353,96.69" transform="translate(-34 -10.69)"/><path class="cls-1" d="M456,58.69" transform="translate(-34 -10.69)"/><path class="cls-2" d="M250,58.69c0-21,46.11-38,103-38s103,17,103,38" transform="translate(-34 -10.69)"/><line class="cls-2" x1="10" y1="48" x2="10" y2="229.81"/><line class="cls-2" x1="216" y1="48" x2="216" y2="229.81"/><line class="cls-2" x1="422" y1="48" x2="422" y2="230.31"/><path class="cls-3" d="M126.84,149.06a1.92,1.92,0,0,0,1.89-.74,8.58,8.58,0,0,0,1.26-1.78,30.4,30.4,0,0,0,2-7.14,50.78,50.78,0,0,0,.52-7.35q0-3.36.1-9.24t.1-13q0-7.14-.21-14.7t-.63-14.39q-.42-6.82-1.26-12.07a25.29,25.29,0,0,0-2.1-7.56,17.93,17.93,0,0,0-6.93-7.14,19.14,19.14,0,0,0-9.66-2.52,14.73,14.73,0,0,0-11,4.41,15,15,0,0,0-4.3,10.92A17.19,17.19,0,0,0,101,78.6a128.07,128.07,0,0,0,9.77,9.76,81.65,81.65,0,0,1,9.77,10.5A22.23,22.23,0,0,1,125,112.94a28.18,28.18,0,0,1-1.26,7,62.23,62.23,0,0,1-3.25,8.92,29.24,29.24,0,0,1-4.83,7.56q-2.84,3.15-6,3.15-1.26,0-3.47-1.79T104,134.57c0-.56.49-1,1.47-1.47a37,37,0,0,0,3.36-1.68,12.49,12.49,0,0,0,3.36-2.73,6.78,6.78,0,0,0,1.47-4.62,10.47,10.47,0,0,0-2.62-7,32.89,32.89,0,0,0-6.51-5.67q-3.89-2.62-8.4-5.35a52.27,52.27,0,0,1-8.4-6.3,31.46,31.46,0,0,1-6.51-8.51,24.92,24.92,0,0,1-2.62-11.86A30.31,30.31,0,0,1,82.64,64a42.49,42.49,0,0,1,10.6-12.29,52.47,52.47,0,0,1,14.49-8.08,45.36,45.36,0,0,1,15.75-2.94A37.19,37.19,0,0,1,132,42a27,27,0,0,1,8.08,3.15,16.38,16.38,0,0,1,2,1.79q1.36,1.37,2.94,2.83t2.73,2.63q1.15,1.16,1.58,1.15.63,0,2.73-2a42,42,0,0,1,5.77-4.41A44.6,44.6,0,0,1,167,42.69a38,38,0,0,1,13-2q6.93,0,11.34,3.15a28.63,28.63,0,0,1,7.46,7.88A46.68,46.68,0,0,1,203.7,62q1.89,5.57,3.78,10.6A24.44,24.44,0,0,0,210.42,78q2.1,3,2.1,4.94a1.61,1.61,0,0,1-.52,1.16l-.95.94a103.44,103.44,0,0,0-11.23,4.41,87.22,87.22,0,0,0-10.6,5.67q-1.89,1.05-.42,2.52A56.46,56.46,0,0,1,208,114.09q7.45,10.19,7.46,24a34.67,34.67,0,0,1-5.67,19.11,57.15,57.15,0,0,1-14.39,15.22,70.93,70.93,0,0,1-19.11,10A61.11,61.11,0,0,1,156.45,186,39.32,39.32,0,0,1,139,182.24a113.38,113.38,0,0,1-14.39-8.3q-6.61-4.51-12.39-8.29A20.55,20.55,0,0,0,101,161.87a10.75,10.75,0,0,0-6.19,1.79,6.25,6.25,0,0,0-2.62,5.56,6,6,0,0,0,1.15,3.67A11.58,11.58,0,0,0,96,175.52l2.63,1.89c.77.56,1.16,1,1.16,1.26a3.06,3.06,0,0,1-.63,1.89,8.21,8.21,0,0,0-1.05,1.89,25.5,25.5,0,0,1-1.89,2.1,3.45,3.45,0,0,1-2.52,1,5.57,5.57,0,0,1-3.89-1.68,15.77,15.77,0,0,1-3-4A20,20,0,0,1,84.84,175a19.23,19.23,0,0,1-.63-4.31,14.84,14.84,0,0,1,2.94-8.61,32.29,32.29,0,0,1,7.35-7.46,42.64,42.64,0,0,1,9.34-5.25,24.12,24.12,0,0,1,8.93-2,31.24,31.24,0,0,1,7.14.84A30.17,30.17,0,0,0,126.84,149.06Zm9.24,1.68a1.77,1.77,0,0,0-.74,1.37,1.64,1.64,0,0,0,.74,1.58q3.57,2.52,8.4,5.88t9.87,6.41a72.61,72.61,0,0,0,10.19,5.14,25,25,0,0,0,9.34,2.1A16.17,16.17,0,0,0,182,171a23.79,23.79,0,0,0,6.72-5.67,29.14,29.14,0,0,0,4.51-7.67,22,22,0,0,0,1.68-8.19q0-4.41-2.62-11.66a79.92,79.92,0,0,0-6.82-14.17,60.76,60.76,0,0,0-9.35-12q-5.15-5-10.19-5a11.33,11.33,0,0,0-3.25.63,31.27,31.27,0,0,0-4,1.57,15.36,15.36,0,0,0-3.46,2.21,4.44,4.44,0,0,0-1.68,2.52,69,69,0,0,1-4.3,19.21q-3.26,8.09-11.24,16.28ZM153.3,72q0,6.72.21,13.54t.42,13.76c0,1.26.56,1.75,1.68,1.47a65.89,65.89,0,0,0,8.29-3.25q5.36-2.41,10.5-5.15A87.59,87.59,0,0,0,183.33,87q3.78-2.62,3.78-4.1a6.94,6.94,0,0,0-.42-1.68l-.94-2.83-1.05-3.15L184,73q-.84-3.36-1.79-6.93a29.06,29.06,0,0,0-2.62-6.62,16,16,0,0,0-4.3-5,11.36,11.36,0,0,0-7-2,10.79,10.79,0,0,0-6.3,1.89,17.45,17.45,0,0,0-4.62,4.73,23.6,23.6,0,0,0-2.94,6.3A22.73,22.73,0,0,0,153.3,72Z" transform="translate(-34 -10.69)"/><path class="cls-3" d="M375.37,180.46a12.25,12.25,0,0,1-4,3.78,10.3,10.3,0,0,1-5.45,1.49,11.14,11.14,0,0,1-6.68-2,11.91,11.91,0,0,1-3,1.49,10.22,10.22,0,0,1-3.25.53,11.54,11.54,0,0,1-6.59-2,10.58,10.58,0,0,1-6.33,2,11.54,11.54,0,0,1-6.59-2,10.72,10.72,0,0,1-6.42,2,10.44,10.44,0,0,1-6.59-2.11,13.18,13.18,0,0,1-3,1.54,9.76,9.76,0,0,1-3.34.57,11.49,11.49,0,0,1-4.35-.83,10.73,10.73,0,0,1-3.6-2.37,11.26,11.26,0,0,1-2.42-3.6A11.8,11.8,0,0,1,304.88,168a10.94,10.94,0,0,1-1.93-6.5,10.79,10.79,0,0,1,1.93-6.42,11.31,11.31,0,0,1-1.93-6.42,10.9,10.9,0,0,1,.53-3.38,13.24,13.24,0,0,1,1.49-3.12,11.45,11.45,0,0,1-1.49-9.93,11.5,11.5,0,0,1,1.49-3.08,10.71,10.71,0,0,1-2-6.42,10.94,10.94,0,0,1,1.93-6.5,11.31,11.31,0,0,1-1.93-6.42,10.94,10.94,0,0,1,1.93-6.5,11.31,11.31,0,0,1-1.93-6.42,11.46,11.46,0,0,1,1.93-6.5A11.31,11.31,0,0,1,302.95,84a11.46,11.46,0,0,1,1.93-6.5A11.31,11.31,0,0,1,302.95,71a10.94,10.94,0,0,1,1.93-6.5,10.79,10.79,0,0,1-1.93-6.42,11,11,0,0,1,5.19-9.58l7-7a11.23,11.23,0,0,1,14.24-1.14,10.12,10.12,0,0,1,3-1.49,11.74,11.74,0,0,1,3.47-.53,10.67,10.67,0,0,1,3.38.57,15.32,15.32,0,0,1,3,1.36,11.1,11.1,0,0,1,6.59-1.93,10.66,10.66,0,0,1,6.33,1.93,11.1,11.1,0,0,1,6.59-1.93,10.42,10.42,0,0,1,3.38.66,21.73,21.73,0,0,1,3,1.27A27.05,27.05,0,0,1,371.37,39a10.4,10.4,0,0,1,3.38-.66,12,12,0,0,1,4.39.79,10,10,0,0,1,3.47,2.24,10.55,10.55,0,0,1,2.29,3.47,11.66,11.66,0,0,1,.83,4.48v1a5,5,0,0,1-.09,1,3.09,3.09,0,0,1,1-.18h1.05a10.49,10.49,0,0,1,4.22.88,11,11,0,0,1,3.52,2.42,11.88,11.88,0,0,1,2.37,3.56,10.7,10.7,0,0,1,.88,4.31c0,.29,0,.63,0,1a8.93,8.93,0,0,1-.13,1,3.2,3.2,0,0,1,1-.18h1.1a11,11,0,0,1,4.22.83,10.72,10.72,0,0,1,3.52,2.33,11.32,11.32,0,0,1,2.37,3.52,10.92,10.92,0,0,1,.88,4.39,10.72,10.72,0,0,1-2,6.42,10.86,10.86,0,0,1,2,6.5,10.42,10.42,0,0,1-.57,3.47,12.88,12.88,0,0,1-1.54,3,11,11,0,0,1,1.54,3,10.69,10.69,0,0,1,.57,3.38,10.42,10.42,0,0,1-.57,3.47,12.88,12.88,0,0,1-1.54,3,11,11,0,0,1,1.54,3,10.69,10.69,0,0,1,.57,3.38,11.34,11.34,0,0,1-2.11,6.5,10.29,10.29,0,0,1,2.11,6.33,10.4,10.4,0,0,1-2.2,6.59,14,14,0,0,1,1.58,3.08,9.86,9.86,0,0,1,.62,3.43,10.39,10.39,0,0,1-.88,4.26,11.46,11.46,0,0,1-2.37,3.47l-7,7a11,11,0,0,1-4.48,4,10.88,10.88,0,0,1-1.49,1.85l-7,7a11.22,11.22,0,0,1-4.39,4,7.7,7.7,0,0,1-.66.92c-.26.32-.54.63-.83.92ZM314.2,48.63a9.52,9.52,0,0,0-3.65.7,10,10,0,0,0-3,1.93,8.67,8.67,0,0,0-2.07,3,9.77,9.77,0,0,0-.75,3.87,9.05,9.05,0,0,0,2.46,6.42,9.15,9.15,0,0,0-1.8,2.9,9.73,9.73,0,0,0-.66,3.6,9.48,9.48,0,0,0,.66,3.52,8.4,8.4,0,0,0,1.89,2.9,8.43,8.43,0,0,0-1.89,2.9,9.73,9.73,0,0,0-.66,3.6,9.48,9.48,0,0,0,.66,3.52,8.4,8.4,0,0,0,1.89,2.9,8.43,8.43,0,0,0-1.89,2.9,9.73,9.73,0,0,0-.66,3.6,9.15,9.15,0,0,0,.66,3.47,10.43,10.43,0,0,0,1.8,2.94,9.15,9.15,0,0,0-1.8,2.9,9.73,9.73,0,0,0-.66,3.6,9.15,9.15,0,0,0,.66,3.47,10.43,10.43,0,0,0,1.8,2.94,9.15,9.15,0,0,0-1.8,2.9,9.73,9.73,0,0,0-.66,3.6,9.48,9.48,0,0,0,.66,3.52,8.41,8.41,0,0,0,1.89,2.9,9.52,9.52,0,0,0-1.89,2.94,9.16,9.16,0,0,0-.66,3.47,10,10,0,0,0,.66,3.69,9.13,9.13,0,0,0,1.8,2.9,10.29,10.29,0,0,0-1.8,3,9.49,9.49,0,0,0-.66,3.52,9.15,9.15,0,0,0,.66,3.47,10.43,10.43,0,0,0,1.8,2.94,9.06,9.06,0,0,0-2.46,6.42,9.17,9.17,0,0,0,2.46,6.5,9.26,9.26,0,0,0-2.46,6.42,9.54,9.54,0,0,0,.75,3.78,9.1,9.1,0,0,0,2.07,3,10.19,10.19,0,0,0,3,2,9,9,0,0,0,3.65.75,8.76,8.76,0,0,0,3.43-.7,10.11,10.11,0,0,0,3-1.93,8.84,8.84,0,0,0,6.5,2.64,9.27,9.27,0,0,0,3.43-.66,9.41,9.41,0,0,0,3-1.89,9.83,9.83,0,0,0,2.9,1.85,9.41,9.41,0,0,0,3.69.7,9.27,9.27,0,0,0,3.43-.66,8.45,8.45,0,0,0,2.9-1.89,9.83,9.83,0,0,0,2.9,1.85,9.41,9.41,0,0,0,3.69.7,8.76,8.76,0,0,0,3.43-.7,9.88,9.88,0,0,0,2.9-1.85A8.92,8.92,0,0,0,366,184a8.6,8.6,0,0,0,3.65-.79,10.44,10.44,0,0,0,3-2.11,9.79,9.79,0,0,0,2.07-3,9,9,0,0,0,.75-3.65,9.18,9.18,0,0,0-1.05-4.31,10.62,10.62,0,0,0,4.48,1,8.6,8.6,0,0,0,3.65-.79,10.44,10.44,0,0,0,3-2.11,9.79,9.79,0,0,0,2.07-3,9,9,0,0,0,.75-3.65,9.28,9.28,0,0,0-1.14-4.48,9.44,9.44,0,0,0,4.57,1.14,9,9,0,0,0,3.65-.75,9.84,9.84,0,0,0,5.1-5.1,9.21,9.21,0,0,0,0-7.16,10.13,10.13,0,0,0-1.93-3,10,10,0,0,0,1.93-3,9.31,9.31,0,0,0,.7-3.56,9.16,9.16,0,0,0-.66-3.47,8.55,8.55,0,0,0-1.89-2.86,9.4,9.4,0,0,0,2.55-6.5,9.29,9.29,0,0,0-2.55-6.42,8.43,8.43,0,0,0,1.89-2.9,9.72,9.72,0,0,0,.66-3.6,9.29,9.29,0,0,0-2.55-6.42,8.43,8.43,0,0,0,1.89-2.9,10.18,10.18,0,0,0,0-7.21,9.19,9.19,0,0,0-1.8-2.9,9.16,9.16,0,0,0,1.8-2.9A9.48,9.48,0,0,0,401.3,84a9.58,9.58,0,0,0-.75-3.78,9.16,9.16,0,0,0-2.07-3,10.2,10.2,0,0,0-3-2,9,9,0,0,0-3.65-.75,8.61,8.61,0,0,0-4.57,1.23A9.45,9.45,0,0,0,388.38,71a9.6,9.6,0,0,0-2.81-6.86,9.78,9.78,0,0,0-3-2.07,9,9,0,0,0-3.65-.75,8.45,8.45,0,0,0-4.48,1.23,10.09,10.09,0,0,0-1.63-11.34A9.31,9.31,0,0,0,366,48.63a10.36,10.36,0,0,0-3.6.62,9.39,9.39,0,0,0-2.9,1.67,9.56,9.56,0,0,0-2.86-1.67,10,10,0,0,0-3.56-.62A9.49,9.49,0,0,0,346.45,51a9.13,9.13,0,0,0-6.33-2.37A9.49,9.49,0,0,0,333.53,51a10.15,10.15,0,0,0-2.9-1.71,9.49,9.49,0,0,0-3.52-.66,9.37,9.37,0,0,0-6.5,2.46,9.19,9.19,0,0,0-2.9-1.8A9.49,9.49,0,0,0,314.2,48.63Zm0,3.52A5.91,5.91,0,0,0,310,53.81a6.1,6.1,0,0,0,0,8.57,5.82,5.82,0,0,0,4.22,1.71,6,6,0,0,0,4.35-1.76,5.84,5.84,0,0,0,0-8.44A6,6,0,0,0,314.2,52.14Zm0,12.74a5.92,5.92,0,0,0-4.13,1.71A6,6,0,0,0,314.2,77a6.06,6.06,0,0,0,0-12.13Zm0,13a5.92,5.92,0,0,0-4.13,1.71A5.68,5.68,0,0,0,308.22,84a6,6,0,0,0,6,6,6,6,0,0,0,6.15-6,5.76,5.76,0,0,0-1.85-4.26A6,6,0,0,0,314.2,77.89Zm0,12.92a5.92,5.92,0,0,0-4.13,1.71,5.68,5.68,0,0,0-1.85,4.35,6,6,0,0,0,6,6,6,6,0,0,0,6.15-6,5.76,5.76,0,0,0-1.85-4.26A6,6,0,0,0,314.2,90.81Zm0,12.92a5.75,5.75,0,0,0-4.22,1.76,5.86,5.86,0,0,0-1.76,4.31,6,6,0,0,0,6,6,6,6,0,0,0,6.15-6,5.76,5.76,0,0,0-1.85-4.26A6,6,0,0,0,314.2,103.73Zm0,12.92a5.75,5.75,0,0,0-4.22,1.76,6.1,6.1,0,0,0,0,8.57,5.68,5.68,0,0,0,4.22,1.8,5.78,5.78,0,0,0,4.44-1.85,6,6,0,0,0,1.71-4.22,5.76,5.76,0,0,0-1.85-4.26A6,6,0,0,0,314.2,116.65Zm0,12.92a6,6,0,0,0-6,6,6,6,0,0,0,1.76,4.39,5.75,5.75,0,0,0,4.22,1.76,6.31,6.31,0,0,0,6.15-6.15,5.54,5.54,0,0,0-.48-2.24,6,6,0,0,0-1.36-1.93,6.89,6.89,0,0,0-2-1.32A5.74,5.74,0,0,0,314.2,129.57Zm0,12.92a5.69,5.69,0,0,0-4.22,1.8,6,6,0,0,0-1.76,4.35,6,6,0,0,0,8.31,5.49,6.85,6.85,0,0,0,2-1.32,6,6,0,0,0,1.36-1.93,5.53,5.53,0,0,0,.48-2.24,6.31,6.31,0,0,0-6.15-6.15Zm0,13a5.71,5.71,0,0,0-4.26,1.76,6.1,6.1,0,0,0,0,8.53,5.75,5.75,0,0,0,4.22,1.76,6,6,0,0,0,4.31-1.8,5.76,5.76,0,0,0,1.85-4.26,6.07,6.07,0,0,0-1.67-4.09A5.69,5.69,0,0,0,314.2,155.5Zm0,12.92a5.71,5.71,0,0,0-4.26,1.76,6.1,6.1,0,0,0,0,8.53,5.75,5.75,0,0,0,4.22,1.76,6,6,0,0,0,4.31-1.8,5.76,5.76,0,0,0,1.85-4.26,6.07,6.07,0,0,0-1.67-4.09A5.69,5.69,0,0,0,314.2,168.42Zm0-112.76a2.57,2.57,0,0,1,1.89.75,2.34,2.34,0,0,1,0,3.43,2.56,2.56,0,0,1-1.89.75,2.42,2.42,0,0,1-1.71-.7,2.44,2.44,0,0,1,0-3.52A2.43,2.43,0,0,1,314.2,55.66Zm0,12.74A2.7,2.7,0,0,1,316.83,71a2.43,2.43,0,0,1-.7,1.71,2.53,2.53,0,0,1-1.93.75A2.56,2.56,0,0,1,311.74,71a2.53,2.53,0,0,1,.75-1.93A2.43,2.43,0,0,1,314.2,68.4Zm0,13a2.61,2.61,0,0,1,1.85.75,2.39,2.39,0,0,1,.79,1.8,2.43,2.43,0,0,1-.7,1.71,2.53,2.53,0,0,1-1.93.75A2.56,2.56,0,0,1,311.74,84a2.48,2.48,0,0,1,2.46-2.55Zm0,12.92a2.61,2.61,0,0,1,1.85.75,2.39,2.39,0,0,1,.79,1.8,2.43,2.43,0,0,1-.7,1.71,2.53,2.53,0,0,1-1.93.75,2.56,2.56,0,0,1-2.46-2.46,2.48,2.48,0,0,1,2.46-2.55Zm0,12.92A2.61,2.61,0,0,1,316,108a2.39,2.39,0,0,1,.79,1.8,2.43,2.43,0,0,1-.7,1.71,2.53,2.53,0,0,1-1.93.75,2.56,2.56,0,0,1-2.46-2.46,2.45,2.45,0,0,1,.75-1.8A2.36,2.36,0,0,1,314.2,107.25Zm0,12.92a2.61,2.61,0,0,1,1.85.75,2.39,2.39,0,0,1,.79,1.8,2.59,2.59,0,0,1-.7,1.76,2.46,2.46,0,0,1-1.93.79,2.35,2.35,0,0,1-1.71-.75,2.55,2.55,0,0,1,0-3.6A2.36,2.36,0,0,1,314.2,120.17Zm0,12.92a2.61,2.61,0,0,1,1.85.75,2.3,2.3,0,0,1,.79,1.71,2.7,2.7,0,0,1-2.64,2.64,2.35,2.35,0,0,1-1.71-.75,2.56,2.56,0,0,1-.75-1.89,2.56,2.56,0,0,1,2.46-2.46Zm0,12.92a2.7,2.7,0,0,1,2.64,2.64,2.29,2.29,0,0,1-.79,1.71,2.6,2.6,0,0,1-1.85.75,2.56,2.56,0,0,1-2.46-2.46,2.56,2.56,0,0,1,.75-1.89A2.36,2.36,0,0,1,314.2,146Zm0,13a2.53,2.53,0,0,1,1.93.75,2.43,2.43,0,0,1,.7,1.71,2.39,2.39,0,0,1-.79,1.8,2.6,2.6,0,0,1-1.85.75,2.35,2.35,0,0,1-1.71-.75,2.45,2.45,0,0,1-.75-1.8,2.42,2.42,0,0,1,.7-1.71A2.32,2.32,0,0,1,314.2,159Zm0,12.92a2.53,2.53,0,0,1,1.93.75,2.43,2.43,0,0,1,.7,1.71,2.39,2.39,0,0,1-.79,1.8,2.6,2.6,0,0,1-1.85.75,2.35,2.35,0,0,1-1.71-.75,2.45,2.45,0,0,1-.75-1.8,2.42,2.42,0,0,1,.7-1.71A2.32,2.32,0,0,1,314.2,171.94ZM327.12,52.14a5.91,5.91,0,0,0-4.22,1.67,6.1,6.1,0,0,0,0,8.57,5.82,5.82,0,0,0,4.22,1.71,6,6,0,0,0,4.39-1.76,5.94,5.94,0,0,0,0-8.44A6,6,0,0,0,327.12,52.14Zm0,12.74A5.92,5.92,0,0,0,323,66.6,6,6,0,0,0,327.12,77a6.06,6.06,0,0,0,0-12.13Zm0,13A5.92,5.92,0,0,0,323,79.61,5.68,5.68,0,0,0,321.14,84a6,6,0,0,0,6,6,6,6,0,0,0,6.15-6,5.76,5.76,0,0,0-1.85-4.26A6,6,0,0,0,327.12,77.89Zm0,12.92A5.92,5.92,0,0,0,323,92.53a5.68,5.68,0,0,0-1.85,4.35,6,6,0,0,0,6,6,6,6,0,0,0,6.15-6,5.76,5.76,0,0,0-1.85-4.26A6,6,0,0,0,327.12,90.81Zm0,12.92a5.75,5.75,0,0,0-4.22,1.76,5.86,5.86,0,0,0-1.76,4.31,6,6,0,0,0,6,6,6,6,0,0,0,6.15-6,5.76,5.76,0,0,0-1.85-4.26A6,6,0,0,0,327.12,103.73Zm0,12.92a5.75,5.75,0,0,0-4.22,1.76,6.1,6.1,0,0,0,0,8.57,5.68,5.68,0,0,0,4.22,1.8,5.78,5.78,0,0,0,4.44-1.85,6,6,0,0,0,1.71-4.22,5.76,5.76,0,0,0-1.85-4.26A6,6,0,0,0,327.12,116.65Zm0,12.92a6,6,0,0,0-6,6,6,6,0,0,0,1.76,4.39,5.75,5.75,0,0,0,4.22,1.76,6.31,6.31,0,0,0,6.15-6.15,5.54,5.54,0,0,0-.48-2.24,6,6,0,0,0-1.36-1.93,6.89,6.89,0,0,0-2-1.32A5.74,5.74,0,0,0,327.12,129.57Zm0,12.92a5.69,5.69,0,0,0-4.22,1.8,6,6,0,0,0-1.76,4.35,6,6,0,0,0,8.31,5.49,6.85,6.85,0,0,0,2-1.32,6,6,0,0,0,1.36-1.93,5.53,5.53,0,0,0,.48-2.24,6.31,6.31,0,0,0-6.15-6.15Zm0,13a5.71,5.71,0,0,0-4.26,1.76,6.1,6.1,0,0,0,0,8.53,5.75,5.75,0,0,0,4.22,1.76,6,6,0,0,0,4.31-1.8,5.76,5.76,0,0,0,1.85-4.26,6.07,6.07,0,0,0-1.67-4.09A5.69,5.69,0,0,0,327.12,155.5Zm0,12.92a5.71,5.71,0,0,0-4.26,1.76,6.1,6.1,0,0,0,0,8.53,5.75,5.75,0,0,0,4.22,1.76,6,6,0,0,0,4.31-1.8,5.76,5.76,0,0,0,1.85-4.26,6.07,6.07,0,0,0-1.67-4.09A5.69,5.69,0,0,0,327.12,168.42Zm0-112.76a2.57,2.57,0,0,1,1.89.75,2.34,2.34,0,0,1,0,3.43,2.56,2.56,0,0,1-1.89.75,2.42,2.42,0,0,1-1.71-.7,2.44,2.44,0,0,1,0-3.52A2.43,2.43,0,0,1,327.12,55.66Zm0,12.74A2.7,2.7,0,0,1,329.75,71a2.43,2.43,0,0,1-.7,1.71,2.53,2.53,0,0,1-1.93.75A2.56,2.56,0,0,1,324.66,71a2.53,2.53,0,0,1,.75-1.93A2.43,2.43,0,0,1,327.12,68.4Zm0,13a2.61,2.61,0,0,1,1.85.75,2.39,2.39,0,0,1,.79,1.8,2.43,2.43,0,0,1-.7,1.71,2.53,2.53,0,0,1-1.93.75A2.56,2.56,0,0,1,324.66,84a2.48,2.48,0,0,1,2.46-2.55Zm0,12.92a2.61,2.61,0,0,1,1.85.75,2.39,2.39,0,0,1,.79,1.8,2.43,2.43,0,0,1-.7,1.71,2.53,2.53,0,0,1-1.93.75,2.56,2.56,0,0,1-2.46-2.46,2.48,2.48,0,0,1,2.46-2.55Zm0,12.92A2.61,2.61,0,0,1,329,108a2.39,2.39,0,0,1,.79,1.8,2.43,2.43,0,0,1-.7,1.71,2.53,2.53,0,0,1-1.93.75,2.56,2.56,0,0,1-2.46-2.46,2.45,2.45,0,0,1,.75-1.8A2.36,2.36,0,0,1,327.12,107.25Zm0,12.92a2.61,2.61,0,0,1,1.85.75,2.39,2.39,0,0,1,.79,1.8,2.59,2.59,0,0,1-.7,1.76,2.46,2.46,0,0,1-1.93.79,2.35,2.35,0,0,1-1.71-.75,2.55,2.55,0,0,1,0-3.6A2.36,2.36,0,0,1,327.12,120.17Zm0,12.92a2.61,2.61,0,0,1,1.85.75,2.3,2.3,0,0,1,.79,1.71,2.7,2.7,0,0,1-2.64,2.64,2.35,2.35,0,0,1-1.71-.75,2.56,2.56,0,0,1-.75-1.89,2.56,2.56,0,0,1,2.46-2.46Zm0,12.92a2.7,2.7,0,0,1,2.64,2.64,2.29,2.29,0,0,1-.79,1.71,2.6,2.6,0,0,1-1.85.75,2.56,2.56,0,0,1-2.46-2.46,2.56,2.56,0,0,1,.75-1.89A2.36,2.36,0,0,1,327.12,146Zm0,13a2.53,2.53,0,0,1,1.93.75,2.43,2.43,0,0,1,.7,1.71,2.39,2.39,0,0,1-.79,1.8,2.6,2.6,0,0,1-1.85.75,2.35,2.35,0,0,1-1.71-.75,2.45,2.45,0,0,1-.75-1.8,2.42,2.42,0,0,1,.7-1.71A2.32,2.32,0,0,1,327.12,159Zm0,12.92a2.53,2.53,0,0,1,1.93.75,2.43,2.43,0,0,1,.7,1.71,2.39,2.39,0,0,1-.79,1.8,2.6,2.6,0,0,1-1.85.75,2.35,2.35,0,0,1-1.71-.75,2.45,2.45,0,0,1-.75-1.8,2.42,2.42,0,0,1,.7-1.71A2.32,2.32,0,0,1,327.12,171.94Zm13-119.79a6,6,0,0,0-4.35,1.67,6.21,6.21,0,0,0,0,8.57,6.26,6.26,0,0,0,8.66,0,5.94,5.94,0,0,0,0-8.44A5.86,5.86,0,0,0,340.12,52.14ZM366,152a9.31,9.31,0,0,0-3.87.79,9.69,9.69,0,0,0-3,2.11,8.92,8.92,0,0,0-1.93,3,9.83,9.83,0,0,0-.66,3.56,10.08,10.08,0,0,0,1.05,4.57,9.28,9.28,0,0,0-4.48-1.14,8.81,8.81,0,0,0-6.5,2.55,10,10,0,0,0-2.86-1.85,8.88,8.88,0,0,0-3.56-.7,9.45,9.45,0,0,0-4.57,1.14,9.24,9.24,0,0,0,1.23-4.57,9.43,9.43,0,0,0-2.64-6.5,9,9,0,0,0,1.93-2.9,8.76,8.76,0,0,0,.7-3.43,8.53,8.53,0,0,0-.75-3.52,10.88,10.88,0,0,0-2-3,10.67,10.67,0,0,0,2-3,8.83,8.83,0,0,0,.75-3.56,8.46,8.46,0,0,0-.7-3.38,9.16,9.16,0,0,0-1.93-2.86,9.33,9.33,0,0,0,2.64-6.59,9.12,9.12,0,0,0-2.64-6.42,8.84,8.84,0,0,0,2.64-6.5,9.12,9.12,0,0,0-2.64-6.42,8.84,8.84,0,0,0,2.64-6.5,9.12,9.12,0,0,0-2.64-6.42,8.84,8.84,0,0,0,2.64-6.5,9.12,9.12,0,0,0-2.64-6.42,8.84,8.84,0,0,0,2.64-6.5,8.31,8.31,0,0,0-1.23-4.39,10.82,10.82,0,0,0,4.57,1,9.25,9.25,0,0,0,6.42-2.37,9.36,9.36,0,0,0,6.5,2.37,9.55,9.55,0,0,0,4.48-1.05,9.69,9.69,0,0,0,1.63,11.16,9.1,9.1,0,0,0,3,2.07,9.55,9.55,0,0,0,3.78.75,9.74,9.74,0,0,0,4.57-1.05A8.45,8.45,0,0,0,369.3,84a9.83,9.83,0,0,0,.66,3.56,8.32,8.32,0,0,0,1.89,2.94,9.4,9.4,0,0,0-1.89,3,9.26,9.26,0,0,0-.66,3.43,9.39,9.39,0,0,0,2.55,6.5,9.4,9.4,0,0,0-1.89,3,9.26,9.26,0,0,0-.66,3.43,9.39,9.39,0,0,0,2.55,6.5,9.4,9.4,0,0,0-1.89,3,9.61,9.61,0,0,0,1.89,10,9.52,9.52,0,0,0-1.89,2.94,8.71,8.71,0,0,0-.66,3.3,11.15,11.15,0,0,0,.57,3.56,8.16,8.16,0,0,0,1.8,3,9.79,9.79,0,0,0-2.37,6.5,9.06,9.06,0,0,0,1.23,4.48A9.46,9.46,0,0,0,366,152Zm-25.84,16.44a5.71,5.71,0,0,0-4.39,1.8,6,6,0,0,0-1.67,4.17,6.06,6.06,0,0,0,1.67,4.26,5.71,5.71,0,0,0,4.39,1.8,6.15,6.15,0,0,0,6.06-6.06,6.07,6.07,0,0,0-1.67-4.09A5.58,5.58,0,0,0,340.12,168.42Zm0-112.76a2.46,2.46,0,0,1,1.8.75,2.34,2.34,0,0,1,0,3.43,2.46,2.46,0,0,1-1.8.75,2.49,2.49,0,0,1-1.85-.7,2.55,2.55,0,0,1,0-3.52A2.49,2.49,0,0,1,340.12,55.66Zm0,116.28a2.48,2.48,0,0,1,2.55,2.46,2.55,2.55,0,0,1-2.55,2.55,2.41,2.41,0,0,1-1.85-.75,2.53,2.53,0,0,1-.7-1.8,2.48,2.48,0,0,1,2.55-2.46Zm15.12-15.21a19.19,19.19,0,0,0,2.15-2.55,8.25,8.25,0,0,1,2.5-2.29l7-7q.7-.7,1.27-1.23a7,7,0,0,0,1.19-1.58,9.13,9.13,0,0,1-1.45-3.12,14.26,14.26,0,0,1-.4-3.38,10.52,10.52,0,0,1,.53-3.16,11.5,11.5,0,0,1,1.49-3.08,11,11,0,0,1-2-6.59,11.48,11.48,0,0,1,.48-3.3,10.66,10.66,0,0,1,1.54-3.12,11.33,11.33,0,0,1-1.49-3.12,11.29,11.29,0,0,1,0-6.68,10.66,10.66,0,0,1,1.54-3.12,11.33,11.33,0,0,1-1.49-3.12,11.46,11.46,0,0,1-.53-3.38,11.19,11.19,0,0,1,.53-3.3,11.35,11.35,0,0,1,1.49-3.12,10.85,10.85,0,0,1-2-6.5V82.2a4.05,4.05,0,0,1-.79.09H366a11.43,11.43,0,0,1-4.53-.88A10.75,10.75,0,0,1,357.88,79a11,11,0,0,1-2.33-3.6,11.47,11.47,0,0,1-.83-4.35V69.28a4.23,4.23,0,0,1-.83.09H353a13.21,13.21,0,0,1-3.47-.44,9.8,9.8,0,0,1-3-1.41,3.85,3.85,0,0,1-.83.66,3.4,3.4,0,0,0-.75.57,10.42,10.42,0,0,1,2.11,6.42,10.31,10.31,0,0,1-2.11,6.5,10.42,10.42,0,0,1,2.11,6.42,10.31,10.31,0,0,1-2.11,6.5,10.42,10.42,0,0,1,2.11,6.42,10.31,10.31,0,0,1-2.11,6.5,10.42,10.42,0,0,1,2.11,6.42,10.64,10.64,0,0,1-2.2,6.59,9.67,9.67,0,0,1,2.2,6.24,10.14,10.14,0,0,1-2.29,6.59,10,10,0,0,1,2.29,6.5,9.79,9.79,0,0,1-2.2,6.33,10.46,10.46,0,0,1,1.67,3.12,10.9,10.9,0,0,1,.53,3.38v1.1a3.22,3.22,0,0,1-.18,1,8.91,8.91,0,0,1,1-.13q.57,0,1,0a10,10,0,0,1,3.43.57A11.52,11.52,0,0,1,355.24,156.73ZM353,52.14a5.87,5.87,0,0,0-4.26,1.67,6,6,0,1,0,8.53,0A5.87,5.87,0,0,0,353,52.14Zm0,116.28a5.57,5.57,0,0,0-4.35,1.8,6,6,0,0,0-1.63,4.17,6.15,6.15,0,0,0,1.63,4.26,5.57,5.57,0,0,0,4.35,1.8,5.69,5.69,0,0,0,4.22-1.8,6.05,6.05,0,0,0,.09-8.44A5.61,5.61,0,0,0,353,168.42Zm0-112.76a2.4,2.4,0,1,1-1.76.7A2.39,2.39,0,0,1,353,55.66Zm0,116.28a2.32,2.32,0,0,1,1.76.75,2.49,2.49,0,0,1,0,3.52,2.36,2.36,0,0,1-1.71.75,2.28,2.28,0,0,1-1.8-.75,2.63,2.63,0,0,1-.66-1.8,2.52,2.52,0,0,1,.66-1.71A2.28,2.28,0,0,1,353,171.94ZM366,52.14a5.87,5.87,0,0,0-4.26,1.67,6,6,0,1,0,8.53,0A5.87,5.87,0,0,0,366,52.14Zm0,12.74a5.69,5.69,0,0,0-4.22,1.8A6,6,0,0,0,360,71a5.83,5.83,0,0,0,1.71,4.22,6,6,0,0,0,8.53,0A5.83,5.83,0,0,0,371.94,71a6,6,0,0,0-1.76-4.35A5.69,5.69,0,0,0,366,64.89Zm0,90.62a5.57,5.57,0,0,0-4.35,1.8,6,6,0,0,0-1.63,4.17,6.15,6.15,0,0,0,1.63,4.26,5.57,5.57,0,0,0,4.35,1.8,5.69,5.69,0,0,0,4.22-1.8,6.05,6.05,0,0,0,.09-8.44A5.61,5.61,0,0,0,366,155.5Zm0,12.92a5.57,5.57,0,0,0-4.35,1.8A6,6,0,0,0,360,174.4a6.15,6.15,0,0,0,1.63,4.26,5.57,5.57,0,0,0,4.35,1.8,5.69,5.69,0,0,0,4.22-1.8,6.05,6.05,0,0,0,.09-8.44A5.61,5.61,0,0,0,366,168.42Zm0-112.76a2.4,2.4,0,1,1-1.76.7A2.39,2.39,0,0,1,366,55.66Zm0,12.74a2.36,2.36,0,0,1,1.71.75,2.57,2.57,0,0,1,.75,1.89,2.43,2.43,0,0,1-.7,1.71,2.44,2.44,0,0,1-3.52,0,2.42,2.42,0,0,1-.7-1.71,2.56,2.56,0,0,1,.75-1.89A2.36,2.36,0,0,1,366,68.4ZM366,159a2.32,2.32,0,0,1,1.76.75,2.49,2.49,0,0,1,0,3.52A2.36,2.36,0,0,1,366,164a2.28,2.28,0,0,1-1.8-.75,2.63,2.63,0,0,1-.66-1.8,2.52,2.52,0,0,1,.66-1.71A2.28,2.28,0,0,1,366,159Zm0,12.92a2.32,2.32,0,0,1,1.76.75,2.49,2.49,0,0,1,0,3.52,2.36,2.36,0,0,1-1.71.75,2.28,2.28,0,0,1-1.8-.75,2.63,2.63,0,0,1-.66-1.8,2.52,2.52,0,0,1,.66-1.71A2.28,2.28,0,0,1,366,171.94ZM378.88,64.89a5.76,5.76,0,0,0-4.26,1.85,6,6,0,0,0-1.8,4.31,5.87,5.87,0,0,0,1.71,4.17,6.1,6.1,0,0,0,8.61,0A5.83,5.83,0,0,0,384.86,71a6,6,0,0,0-1.76-4.35A5.69,5.69,0,0,0,378.88,64.89Zm0,13a6,6,0,0,0-4.35,10.24,6.1,6.1,0,0,0,8.61,0,6.1,6.1,0,0,0,0-8.53A5.76,5.76,0,0,0,378.88,77.89Zm0,12.92a6,6,0,0,0-4.35,10.24,6.1,6.1,0,0,0,8.61,0,6.1,6.1,0,0,0,0-8.53A5.76,5.76,0,0,0,378.88,90.81Zm0,12.92a5.49,5.49,0,0,0-4.44,1.93,6.31,6.31,0,0,0-1.63,4.13,5.87,5.87,0,0,0,1.71,4.17,6.1,6.1,0,0,0,8.61,0,5.83,5.83,0,0,0,1.71-4.22,5.91,5.91,0,0,0-1.76-4.26A5.69,5.69,0,0,0,378.88,103.73Zm0,12.92a5.49,5.49,0,0,0-4.44,1.93,6.31,6.31,0,0,0-1.63,4.13,6,6,0,0,0,1.71,4.22,6,6,0,0,0,8.61,0,6,6,0,0,0,1.71-4.26,5.91,5.91,0,0,0-1.76-4.26A5.69,5.69,0,0,0,378.88,116.65Zm0,12.92a5.62,5.62,0,0,0-4.35,1.89,6,6,0,0,0-1.71,4.09,6.36,6.36,0,0,0,1.63,4.26,5.54,5.54,0,0,0,4.44,1.89,5.62,5.62,0,0,0,4.22-1.85,6.05,6.05,0,0,0,1.76-4.31,6,6,0,0,0-6-6Zm0,12.92a5.49,5.49,0,0,0-4.44,1.93,6.41,6.41,0,0,0-1.63,4.22,6,6,0,0,0,1.71,4.09,5.61,5.61,0,0,0,4.35,1.89,6,6,0,0,0,6-6,6.05,6.05,0,0,0-1.76-4.31A5.62,5.62,0,0,0,378.88,142.49Zm0,13a5.55,5.55,0,0,0-4.44,1.89,6.15,6.15,0,0,0-1.63,4.09,6.25,6.25,0,0,0,1.63,4.17,5.54,5.54,0,0,0,4.44,1.89,5.69,5.69,0,0,0,4.22-1.8,6.05,6.05,0,0,0,.09-8.44A5.61,5.61,0,0,0,378.88,155.5Zm0-87.1a2.36,2.36,0,0,1,1.71.75,2.57,2.57,0,0,1,.75,1.89,2.43,2.43,0,0,1-.7,1.71,2.31,2.31,0,0,1-1.76.75A2.48,2.48,0,0,1,376.33,71a2.6,2.6,0,0,1,.75-1.85A2.39,2.39,0,0,1,378.88,68.4Zm0,13a2.36,2.36,0,0,1,1.71.75,2.46,2.46,0,0,1,.75,1.8,2.43,2.43,0,0,1-.7,1.71,2.31,2.31,0,0,1-1.76.75A2.48,2.48,0,0,1,376.33,84a2.55,2.55,0,0,1,2.55-2.55Zm0,12.92a2.36,2.36,0,0,1,1.71.75,2.46,2.46,0,0,1,.75,1.8,2.43,2.43,0,0,1-.7,1.71,2.31,2.31,0,0,1-1.76.75,2.48,2.48,0,0,1-2.55-2.46,2.55,2.55,0,0,1,2.55-2.55Zm0,12.92a2.36,2.36,0,0,1,1.71.75,2.46,2.46,0,0,1,.75,1.8,2.43,2.43,0,0,1-.7,1.71,2.31,2.31,0,0,1-1.76.75,2.48,2.48,0,0,1-2.55-2.46A2.68,2.68,0,0,1,377,108,2.32,2.32,0,0,1,378.88,107.25Zm0,12.92a2.36,2.36,0,0,1,1.71.75,2.46,2.46,0,0,1,.75,1.8,2.54,2.54,0,0,1-.7,1.8,2.31,2.31,0,0,1-1.76.75,2.35,2.35,0,0,1-1.85-.79,2.58,2.58,0,0,1-.7-1.76A2.68,2.68,0,0,1,377,121,2.32,2.32,0,0,1,378.88,120.17Zm0,12.92a2.56,2.56,0,0,1,2.46,2.46,2.61,2.61,0,0,1-.75,1.85,2.3,2.3,0,0,1-1.71.79,2.26,2.26,0,0,1-1.89-.83,2.85,2.85,0,0,1-.66-1.8,2.48,2.48,0,0,1,2.55-2.46Zm0,12.92a2.3,2.3,0,0,1,1.71.79,2.61,2.61,0,0,1,.75,1.85,2.56,2.56,0,0,1-2.46,2.46,2.48,2.48,0,0,1-2.55-2.46,2.85,2.85,0,0,1,.66-1.8A2.26,2.26,0,0,1,378.88,146Zm0,13a2.32,2.32,0,0,1,1.76.75,2.49,2.49,0,0,1,0,3.52,2.36,2.36,0,0,1-1.71.75,2.32,2.32,0,0,1-1.89-.79,2.68,2.68,0,0,1-.66-1.76,2.52,2.52,0,0,1,.66-1.71A2.39,2.39,0,0,1,378.88,159ZM391.8,77.89a6,6,0,0,0-4.35,10.24,6.1,6.1,0,0,0,8.61,0,6.1,6.1,0,0,0,0-8.53A5.76,5.76,0,0,0,391.8,77.89Zm0,12.92a6,6,0,0,0-4.35,10.24,6.1,6.1,0,0,0,8.61,0,6.1,6.1,0,0,0,0-8.53A5.76,5.76,0,0,0,391.8,90.81Zm0,12.92a5.52,5.52,0,0,0-4.39,1.93,6.22,6.22,0,0,0-1.67,4.13,5.87,5.87,0,0,0,1.71,4.17,6.1,6.1,0,0,0,8.61,0,5.83,5.83,0,0,0,1.71-4.22,5.91,5.91,0,0,0-1.76-4.26A5.69,5.69,0,0,0,391.8,103.73Zm0,12.92a5.52,5.52,0,0,0-4.39,1.93,6.22,6.22,0,0,0-1.67,4.13,6,6,0,0,0,1.71,4.22,6,6,0,0,0,8.61,0,6,6,0,0,0,1.71-4.26,5.91,5.91,0,0,0-1.76-4.26A5.69,5.69,0,0,0,391.8,116.65Zm0,12.92a5.62,5.62,0,0,0-4.35,1.89,6,6,0,0,0-1.71,4.09,6.26,6.26,0,0,0,1.67,4.26,5.9,5.9,0,0,0,8.61,0,6.05,6.05,0,0,0,1.76-4.31,6,6,0,0,0-6-6Zm0,12.92a5.52,5.52,0,0,0-4.39,1.93,6.32,6.32,0,0,0-1.67,4.22,6,6,0,0,0,1.71,4.09,5.61,5.61,0,0,0,4.35,1.89,6,6,0,0,0,6-6,6.05,6.05,0,0,0-1.76-4.31A5.62,5.62,0,0,0,391.8,142.49Zm0-61.08a2.36,2.36,0,0,1,1.71.75,2.46,2.46,0,0,1,.75,1.8,2.43,2.43,0,0,1-.7,1.71,2.31,2.31,0,0,1-1.76.75A2.48,2.48,0,0,1,389.25,84a2.55,2.55,0,0,1,2.55-2.55Zm0,12.92a2.36,2.36,0,0,1,1.71.75,2.46,2.46,0,0,1,.75,1.8,2.43,2.43,0,0,1-.7,1.71,2.31,2.31,0,0,1-1.76.75,2.48,2.48,0,0,1-2.55-2.46,2.55,2.55,0,0,1,2.55-2.55Zm0,12.92a2.36,2.36,0,0,1,1.71.75,2.46,2.46,0,0,1,.75,1.8,2.43,2.43,0,0,1-.7,1.71,2.31,2.31,0,0,1-1.76.75,2.48,2.48,0,0,1-2.55-2.46A2.58,2.58,0,0,1,390,108,2.35,2.35,0,0,1,391.8,107.25Zm0,12.92a2.36,2.36,0,0,1,1.71.75,2.46,2.46,0,0,1,.75,1.8,2.54,2.54,0,0,1-.7,1.8,2.31,2.31,0,0,1-1.76.75,2.35,2.35,0,0,1-1.85-.79,2.55,2.55,0,0,1,0-3.52A2.35,2.35,0,0,1,391.8,120.17Zm0,12.92a2.56,2.56,0,0,1,2.46,2.46,2.61,2.61,0,0,1-.75,1.85,2.35,2.35,0,0,1-3.56,0,2.74,2.74,0,0,1-.7-1.8,2.48,2.48,0,0,1,2.55-2.46Zm0,12.92a2.3,2.3,0,0,1,1.71.79,2.61,2.61,0,0,1,.75,1.85,2.56,2.56,0,0,1-2.46,2.46,2.48,2.48,0,0,1-2.55-2.46,2.74,2.74,0,0,1,.7-1.8A2.29,2.29,0,0,1,391.8,146Z" transform="translate(-34 -10.69)"/></svg>
