<svg id="Ebene_1" data-name="Ebene 1" xmlns="http://www.w3.org/2000/svg" viewBox="0 0 432 230.31"><defs><style>.cls-1{fill:#fff;}.cls-1,.cls-2{stroke:#000;stroke-miterlimit:10;stroke-width:20px;}.cls-2{fill:none;}</style></defs><title>icon</title><path class="cls-1" d="M50.82,335.49" transform="translate(-40.82 -105.68)"/><path class="cls-1" d="M153.82,373.49" transform="translate(-40.82 -105.68)"/><path class="cls-2" d="M50.82,335.49c0-21,46.11-38,103-38s103,17,103,38" transform="translate(-40.82 -105.68)"/><path class="cls-2" d="M256.82,336c0-21,46.11-38,103-38s103,17,103,38" transform="translate(-40.82 -105.68)"/><path class="cls-1" d="M50.82,153.68" transform="translate(-40.82 -105.68)"/><path class="cls-1" d="M153.82,191.68" transform="translate(-40.82 -105.68)"/><path class="cls-1" d="M256.82,153.68" transform="translate(-40.82 -105.68)"/><path class="cls-2" d="M50.82,153.68c0-21,46.11-38,103-38s103,17,103,38" transform="translate(-40.82 -105.68)"/><path class="cls-1" d="M359.82,191.68" transform="translate(-40.82 -105.68)"/><path class="cls-1" d="M462.82,153.68" transform="translate(-40.82 -105.68)"/><path class="cls-2" d="M256.82,153.68c0-21,46.11-38,103-38s103,17,103,38" transform="translate(-40.82 -105.68)"/><line class="cls-2" x1="10" y1="48" x2="10" y2="229.81"/><line class="cls-2" x1="216" y1="48" x2="216" y2="229.81"/><line class="cls-2" x1="422" y1="48" x2="422" y2="230.31"/><path d="M133.66,244a1.92,1.92,0,0,0,1.89-.73,8.57,8.57,0,0,0,1.26-1.78,30.4,30.4,0,0,0,2-7.14,50.78,50.78,0,0,0,.52-7.35q0-3.36.1-9.24t.1-13q0-7.14-.21-14.7t-.63-14.39q-.42-6.82-1.26-12.07a25.29,25.29,0,0,0-2.1-7.56,17.93,17.93,0,0,0-6.93-7.14,19.14,19.14,0,0,0-9.66-2.52,14.73,14.73,0,0,0-11,4.41,15,15,0,0,0-4.3,10.92,17.19,17.19,0,0,0,4.41,11.87,128.07,128.07,0,0,0,9.77,9.76,81.65,81.65,0,0,1,9.77,10.5,22.23,22.23,0,0,1,4.41,14.07,28.18,28.18,0,0,1-1.26,7,62.25,62.25,0,0,1-3.25,8.93,29.24,29.24,0,0,1-4.83,7.56q-2.84,3.15-6,3.15-1.26,0-3.47-1.79t-2.21-3.25c0-.56.49-1,1.47-1.47a37,37,0,0,0,3.36-1.68,12.49,12.49,0,0,0,3.36-2.73,6.78,6.78,0,0,0,1.47-4.62,10.47,10.47,0,0,0-2.62-7,32.89,32.89,0,0,0-6.51-5.67q-3.89-2.62-8.4-5.35a52.27,52.27,0,0,1-8.4-6.3A31.46,31.46,0,0,1,88,186.19a24.92,24.92,0,0,1-2.62-11.86A30.31,30.31,0,0,1,89.46,159a42.49,42.49,0,0,1,10.6-12.29,52.47,52.47,0,0,1,14.49-8.08,45.36,45.36,0,0,1,15.75-2.94,37.19,37.19,0,0,1,8.5,1.26,27,27,0,0,1,8.08,3.15,16.38,16.38,0,0,1,2,1.79q1.36,1.37,2.94,2.83t2.73,2.63q1.15,1.16,1.58,1.15.63,0,2.73-2a42,42,0,0,1,5.77-4.41,44.6,44.6,0,0,1,9.13-4.41,38,38,0,0,1,13-2q6.93,0,11.34,3.15a28.63,28.63,0,0,1,7.46,7.88A46.68,46.68,0,0,1,210.52,157q1.89,5.57,3.78,10.6a24.44,24.44,0,0,0,2.94,5.35q2.1,3,2.1,4.94a1.61,1.61,0,0,1-.52,1.16l-.95.94a103.44,103.44,0,0,0-11.23,4.41,87.22,87.22,0,0,0-10.6,5.67q-1.89,1.05-.42,2.52a56.46,56.46,0,0,1,19.21,16.48q7.45,10.19,7.46,24a34.67,34.67,0,0,1-5.67,19.11,57.15,57.15,0,0,1-14.39,15.22,70.93,70.93,0,0,1-19.11,10A61.11,61.11,0,0,1,163.27,281a39.32,39.32,0,0,1-17.43-3.78,113.38,113.38,0,0,1-14.39-8.3q-6.61-4.51-12.39-8.29a20.55,20.55,0,0,0-11.24-3.78,10.75,10.75,0,0,0-6.19,1.79A6.25,6.25,0,0,0,99,264.21a6,6,0,0,0,1.15,3.67,11.58,11.58,0,0,0,2.63,2.63l2.63,1.89c.77.56,1.16,1,1.16,1.26a3.06,3.06,0,0,1-.63,1.89,8.21,8.21,0,0,0-1.05,1.89,25.5,25.5,0,0,1-1.89,2.1,3.45,3.45,0,0,1-2.52,1,5.57,5.57,0,0,1-3.89-1.68,15.77,15.77,0,0,1-3-4A20,20,0,0,1,91.66,270a19.23,19.23,0,0,1-.63-4.31A14.84,14.84,0,0,1,94,257.07a32.29,32.29,0,0,1,7.35-7.46,42.64,42.64,0,0,1,9.34-5.25,24.12,24.12,0,0,1,8.93-2,31.24,31.24,0,0,1,7.14.84A30.14,30.14,0,0,0,133.66,244Zm9.24,1.68a1.77,1.77,0,0,0-.74,1.37,1.64,1.64,0,0,0,.74,1.57q3.57,2.52,8.4,5.88t9.87,6.41a72.61,72.61,0,0,0,10.19,5.14,25,25,0,0,0,9.34,2.1,16.17,16.17,0,0,0,8.08-2.21,23.79,23.79,0,0,0,6.72-5.67,29.14,29.14,0,0,0,4.51-7.67,22,22,0,0,0,1.68-8.19q0-4.41-2.62-11.66a79.94,79.94,0,0,0-6.82-14.17,60.76,60.76,0,0,0-9.35-12q-5.15-5-10.19-5a11.33,11.33,0,0,0-3.25.63,31.27,31.27,0,0,0-4,1.57A15.36,15.36,0,0,0,162,206a4.44,4.44,0,0,0-1.68,2.52,69,69,0,0,1-4.3,19.21q-3.26,8.09-11.24,16.27ZM160.12,167q0,6.72.21,13.54t.42,13.76c0,1.26.56,1.75,1.68,1.47a65.89,65.89,0,0,0,8.29-3.25q5.36-2.41,10.5-5.15a87.59,87.59,0,0,0,8.93-5.35q3.78-2.62,3.78-4.1a6.94,6.94,0,0,0-.42-1.68l-.94-2.83-1.05-3.15-.73-2.2q-.84-3.36-1.79-6.93a29.06,29.06,0,0,0-2.62-6.62,16,16,0,0,0-4.3-5,11.36,11.36,0,0,0-7-2,10.79,10.79,0,0,0-6.3,1.89,17.45,17.45,0,0,0-4.62,4.73,23.6,23.6,0,0,0-2.94,6.3A22.73,22.73,0,0,0,160.12,167Z" transform="translate(-40.82 -105.68)"/><path d="M382.19,275.45a12.25,12.25,0,0,1-4,3.78,10.3,10.3,0,0,1-5.45,1.49,11.14,11.14,0,0,1-6.68-2,11.89,11.89,0,0,1-3,1.49,10.22,10.22,0,0,1-3.25.53,11.54,11.54,0,0,1-6.59-2,10.58,10.58,0,0,1-6.33,2,11.54,11.54,0,0,1-6.59-2,10.72,10.72,0,0,1-6.42,2,10.44,10.44,0,0,1-6.59-2.11,13.16,13.16,0,0,1-3,1.54,9.76,9.76,0,0,1-3.34.57,11.49,11.49,0,0,1-4.35-.83,10.73,10.73,0,0,1-3.6-2.37,11.26,11.26,0,0,1-2.42-3.6,11.44,11.44,0,0,1-.88-4.53A11.32,11.32,0,0,1,311.7,263a10.94,10.94,0,0,1-1.93-6.5,10.8,10.8,0,0,1,1.93-6.42,11.32,11.32,0,0,1-1.93-6.42,10.91,10.91,0,0,1,.53-3.38,13.25,13.25,0,0,1,1.49-3.12,11.45,11.45,0,0,1-1.49-9.93,11.51,11.51,0,0,1,1.49-3.08,10.71,10.71,0,0,1-2-6.42,11,11,0,0,1,1.93-6.5,11.32,11.32,0,0,1-1.93-6.42,11,11,0,0,1,1.93-6.5,11.32,11.32,0,0,1-1.93-6.42,11.47,11.47,0,0,1,1.93-6.5,11.32,11.32,0,0,1-1.93-6.42,11.47,11.47,0,0,1,1.93-6.5,11.32,11.32,0,0,1-1.93-6.42,11,11,0,0,1,1.93-6.5,10.8,10.8,0,0,1-1.93-6.42,11,11,0,0,1,5.19-9.58l7-7a11.23,11.23,0,0,1,14.24-1.14,10.12,10.12,0,0,1,3-1.49,11.74,11.74,0,0,1,3.47-.53,10.67,10.67,0,0,1,3.38.57,15.32,15.32,0,0,1,3,1.36,11.1,11.1,0,0,1,6.59-1.93,10.66,10.66,0,0,1,6.33,1.93,11.1,11.1,0,0,1,6.59-1.93A10.42,10.42,0,0,1,372,134a21.68,21.68,0,0,1,3,1.27,27.13,27.13,0,0,1,3.12-1.27,10.4,10.4,0,0,1,3.38-.66,12,12,0,0,1,4.39.79,10,10,0,0,1,3.47,2.24,10.55,10.55,0,0,1,2.29,3.47,11.66,11.66,0,0,1,.83,4.48v1a5,5,0,0,1-.09,1,3.09,3.09,0,0,1,1-.18h1.05a10.49,10.49,0,0,1,4.22.88,11,11,0,0,1,3.52,2.42,11.84,11.84,0,0,1,2.37,3.56,10.7,10.7,0,0,1,.88,4.31c0,.29,0,.63,0,1a8.93,8.93,0,0,1-.13,1,3.2,3.2,0,0,1,1-.18h1.1a11,11,0,0,1,4.22.83,10.71,10.71,0,0,1,3.52,2.33,11.29,11.29,0,0,1,2.37,3.52,10.92,10.92,0,0,1,.88,4.39,10.71,10.71,0,0,1-2,6.42,10.86,10.86,0,0,1,2,6.5,10.42,10.42,0,0,1-.57,3.47,12.84,12.84,0,0,1-1.54,3,11,11,0,0,1,1.54,3,10.69,10.69,0,0,1,.57,3.38,10.42,10.42,0,0,1-.57,3.47,12.84,12.84,0,0,1-1.54,3,11,11,0,0,1,1.54,3,10.69,10.69,0,0,1,.57,3.38,11.34,11.34,0,0,1-2.11,6.5,10.29,10.29,0,0,1,2.11,6.33,10.4,10.4,0,0,1-2.2,6.59,13.89,13.89,0,0,1,1.58,3.08,9.87,9.87,0,0,1,.62,3.43,10.39,10.39,0,0,1-.88,4.26,11.42,11.42,0,0,1-2.37,3.47l-7,7a11,11,0,0,1-4.48,4,10.83,10.83,0,0,1-1.49,1.85l-7,7a11.21,11.21,0,0,1-4.39,4,7.7,7.7,0,0,1-.66.92q-.4.48-.83.92ZM321,143.62a9.52,9.52,0,0,0-3.65.7,10,10,0,0,0-3,1.93,8.67,8.67,0,0,0-2.07,3,9.77,9.77,0,0,0-.75,3.87,9.06,9.06,0,0,0,2.46,6.42,9.17,9.17,0,0,0-1.8,2.9,9.73,9.73,0,0,0-.66,3.6,9.48,9.48,0,0,0,.66,3.52,8.4,8.4,0,0,0,1.89,2.9,8.43,8.43,0,0,0-1.89,2.9,9.73,9.73,0,0,0-.66,3.6,9.48,9.48,0,0,0,.66,3.52,8.4,8.4,0,0,0,1.89,2.9,8.43,8.43,0,0,0-1.89,2.9,9.73,9.73,0,0,0-.66,3.6,9.15,9.15,0,0,0,.66,3.47,10.46,10.46,0,0,0,1.8,2.94,9.17,9.17,0,0,0-1.8,2.9,9.73,9.73,0,0,0-.66,3.6,9.15,9.15,0,0,0,.66,3.47,10.46,10.46,0,0,0,1.8,2.94,9.17,9.17,0,0,0-1.8,2.9,9.73,9.73,0,0,0-.66,3.6,9.48,9.48,0,0,0,.66,3.52,8.4,8.4,0,0,0,1.89,2.9,9.53,9.53,0,0,0-1.89,2.94,9.16,9.16,0,0,0-.66,3.47,10,10,0,0,0,.66,3.69,9.14,9.14,0,0,0,1.8,2.9,10.31,10.31,0,0,0-1.8,3,9.49,9.49,0,0,0-.66,3.52,9.15,9.15,0,0,0,.66,3.47,10.46,10.46,0,0,0,1.8,2.94,9.06,9.06,0,0,0-2.46,6.42A9.17,9.17,0,0,0,314,263a9.26,9.26,0,0,0-2.46,6.42,9.54,9.54,0,0,0,.75,3.78,9.1,9.1,0,0,0,2.07,3,10.19,10.19,0,0,0,3,2A9,9,0,0,0,321,279a8.75,8.75,0,0,0,3.43-.7,10.11,10.11,0,0,0,3-1.93,8.84,8.84,0,0,0,6.5,2.64,9.26,9.26,0,0,0,3.43-.66,9.41,9.41,0,0,0,3-1.89,9.85,9.85,0,0,0,2.9,1.85,9.41,9.41,0,0,0,3.69.7,9.26,9.26,0,0,0,3.43-.66,8.45,8.45,0,0,0,2.9-1.89,9.85,9.85,0,0,0,2.9,1.85,9.41,9.41,0,0,0,3.69.7,8.75,8.75,0,0,0,3.43-.7,9.88,9.88,0,0,0,2.9-1.85,8.92,8.92,0,0,0,6.59,2.55,8.6,8.6,0,0,0,3.65-.79,10.44,10.44,0,0,0,3-2.11,9.79,9.79,0,0,0,2.07-3,9,9,0,0,0,.75-3.65,9.18,9.18,0,0,0-1.05-4.31,10.62,10.62,0,0,0,4.48,1,8.6,8.6,0,0,0,3.65-.79,10.44,10.44,0,0,0,3-2.11,9.79,9.79,0,0,0,2.07-3,9,9,0,0,0,.75-3.65,9.28,9.28,0,0,0-1.14-4.48,9.44,9.44,0,0,0,4.57,1.14,9,9,0,0,0,3.65-.75,9.84,9.84,0,0,0,5.1-5.1,9.21,9.21,0,0,0,0-7.16,10.11,10.11,0,0,0-1.93-3,9.94,9.94,0,0,0,1.93-3,9.29,9.29,0,0,0,.7-3.56,9.16,9.16,0,0,0-.66-3.47,8.54,8.54,0,0,0-1.89-2.86,9.39,9.39,0,0,0,2.55-6.5,9.29,9.29,0,0,0-2.55-6.42,8.42,8.42,0,0,0,1.89-2.9,9.72,9.72,0,0,0,.66-3.6,9.29,9.29,0,0,0-2.55-6.42,8.42,8.42,0,0,0,1.89-2.9,10.18,10.18,0,0,0,0-7.21,9.19,9.19,0,0,0-1.8-2.9,9.16,9.16,0,0,0,1.8-2.9,9.48,9.48,0,0,0,.66-3.52,9.58,9.58,0,0,0-.75-3.78,9.16,9.16,0,0,0-2.07-3,10.2,10.2,0,0,0-3-2,9,9,0,0,0-3.65-.75,8.62,8.62,0,0,0-4.57,1.23A9.45,9.45,0,0,0,395.2,166a9.6,9.6,0,0,0-2.81-6.86,9.78,9.78,0,0,0-3-2.07,9,9,0,0,0-3.65-.75,8.46,8.46,0,0,0-4.48,1.23,10.09,10.09,0,0,0-1.63-11.34,9.31,9.31,0,0,0-6.81-2.64,10.36,10.36,0,0,0-3.6.62,9.41,9.41,0,0,0-2.9,1.67,9.56,9.56,0,0,0-2.86-1.67,10,10,0,0,0-3.56-.62,9.49,9.49,0,0,0-6.59,2.37,9.13,9.13,0,0,0-6.33-2.37,9.49,9.49,0,0,0-6.59,2.37,10.15,10.15,0,0,0-2.9-1.71,9.49,9.49,0,0,0-3.52-.66,9.38,9.38,0,0,0-6.5,2.46,9.19,9.19,0,0,0-2.9-1.8A9.49,9.49,0,0,0,321,143.62Zm0,3.52a5.91,5.91,0,0,0-4.22,1.67,6.1,6.1,0,0,0,0,8.57,5.83,5.83,0,0,0,4.22,1.71,6,6,0,0,0,4.35-1.76,5.84,5.84,0,0,0,0-8.44A6,6,0,0,0,321,147.13Zm0,12.74a5.92,5.92,0,0,0-4.13,1.71A6,6,0,0,0,321,172a6.06,6.06,0,0,0,0-12.13Zm0,13a5.92,5.92,0,0,0-4.13,1.71,5.68,5.68,0,0,0-1.85,4.35,6,6,0,0,0,6,6,6,6,0,0,0,6.15-6,5.76,5.76,0,0,0-1.85-4.26A6,6,0,0,0,321,172.88Zm0,12.92a5.92,5.92,0,0,0-4.13,1.71,5.68,5.68,0,0,0-1.85,4.35,6,6,0,0,0,6,6,6,6,0,0,0,6.15-6,5.76,5.76,0,0,0-1.85-4.26A6,6,0,0,0,321,185.8Zm0,12.92a5.76,5.76,0,0,0-4.22,1.76,5.86,5.86,0,0,0-1.76,4.31,6,6,0,0,0,6,6,6,6,0,0,0,6.15-6,5.76,5.76,0,0,0-1.85-4.26A6,6,0,0,0,321,198.72Zm0,12.92a5.76,5.76,0,0,0-4.22,1.76,6.1,6.1,0,0,0,0,8.57,5.68,5.68,0,0,0,4.22,1.8,5.78,5.78,0,0,0,4.44-1.85,6,6,0,0,0,1.71-4.22,5.76,5.76,0,0,0-1.85-4.26A6,6,0,0,0,321,211.64Zm0,12.92a6,6,0,0,0-6,6,6,6,0,0,0,1.76,4.39,5.75,5.75,0,0,0,4.22,1.76,6.31,6.31,0,0,0,6.15-6.15,5.54,5.54,0,0,0-.48-2.24,6,6,0,0,0-1.36-1.93,6.9,6.9,0,0,0-2-1.32A5.74,5.74,0,0,0,321,224.56Zm0,12.92a5.69,5.69,0,0,0-4.22,1.8,6,6,0,0,0-1.76,4.35,6,6,0,0,0,8.31,5.49,6.84,6.84,0,0,0,2-1.32,6,6,0,0,0,1.36-1.93,5.53,5.53,0,0,0,.48-2.24,6.31,6.31,0,0,0-6.15-6.15Zm0,13a5.71,5.71,0,0,0-4.26,1.76,6.1,6.1,0,0,0,0,8.53,5.75,5.75,0,0,0,4.22,1.76,6,6,0,0,0,4.31-1.8,5.76,5.76,0,0,0,1.85-4.26,6.07,6.07,0,0,0-1.67-4.09A5.69,5.69,0,0,0,321,250.49Zm0,12.92a5.71,5.71,0,0,0-4.26,1.76,6.1,6.1,0,0,0,0,8.53,5.75,5.75,0,0,0,4.22,1.76,6,6,0,0,0,4.31-1.8,5.76,5.76,0,0,0,1.85-4.26,6.07,6.07,0,0,0-1.67-4.09A5.68,5.68,0,0,0,321,263.41Zm0-112.76a2.57,2.57,0,0,1,1.89.75,2.34,2.34,0,0,1,0,3.43,2.56,2.56,0,0,1-1.89.75,2.42,2.42,0,0,1-1.71-.7,2.44,2.44,0,0,1,0-3.52A2.43,2.43,0,0,1,321,150.65Zm0,12.74a2.7,2.7,0,0,1,2.64,2.64,2.43,2.43,0,0,1-.7,1.71,2.53,2.53,0,0,1-1.93.75,2.56,2.56,0,0,1-2.46-2.46,2.53,2.53,0,0,1,.75-1.93A2.43,2.43,0,0,1,321,163.39Zm0,13a2.61,2.61,0,0,1,1.85.75,2.39,2.39,0,0,1,.79,1.8,2.43,2.43,0,0,1-.7,1.71,2.53,2.53,0,0,1-1.93.75,2.56,2.56,0,0,1-2.46-2.46A2.48,2.48,0,0,1,321,176.4Zm0,12.92a2.61,2.61,0,0,1,1.85.75,2.39,2.39,0,0,1,.79,1.8,2.43,2.43,0,0,1-.7,1.71,2.53,2.53,0,0,1-1.93.75,2.56,2.56,0,0,1-2.46-2.46,2.48,2.48,0,0,1,2.46-2.55Zm0,12.92a2.61,2.61,0,0,1,1.85.75,2.39,2.39,0,0,1,.79,1.8,2.43,2.43,0,0,1-.7,1.71,2.53,2.53,0,0,1-1.93.75,2.56,2.56,0,0,1-2.46-2.46,2.45,2.45,0,0,1,.75-1.8A2.36,2.36,0,0,1,321,202.24Zm0,12.92a2.61,2.61,0,0,1,1.85.75,2.39,2.39,0,0,1,.79,1.8,2.58,2.58,0,0,1-.7,1.76,2.46,2.46,0,0,1-1.93.79,2.35,2.35,0,0,1-1.71-.75,2.55,2.55,0,0,1,0-3.6A2.36,2.36,0,0,1,321,215.16Zm0,12.92a2.61,2.61,0,0,1,1.85.75,2.3,2.3,0,0,1,.79,1.71,2.7,2.7,0,0,1-2.64,2.64,2.35,2.35,0,0,1-1.71-.75,2.55,2.55,0,0,1-.75-1.89,2.56,2.56,0,0,1,2.46-2.46ZM321,241a2.7,2.7,0,0,1,2.64,2.64,2.29,2.29,0,0,1-.79,1.71,2.6,2.6,0,0,1-1.85.75,2.56,2.56,0,0,1-2.46-2.46,2.56,2.56,0,0,1,.75-1.89A2.36,2.36,0,0,1,321,241Zm0,13a2.53,2.53,0,0,1,1.93.75,2.43,2.43,0,0,1,.7,1.71,2.39,2.39,0,0,1-.79,1.8A2.6,2.6,0,0,1,321,259a2.35,2.35,0,0,1-1.71-.75,2.45,2.45,0,0,1-.75-1.8,2.42,2.42,0,0,1,.7-1.71A2.32,2.32,0,0,1,321,254Zm0,12.92a2.53,2.53,0,0,1,1.93.75,2.43,2.43,0,0,1,.7,1.71,2.39,2.39,0,0,1-.79,1.8,2.6,2.6,0,0,1-1.85.75,2.35,2.35,0,0,1-1.71-.75,2.45,2.45,0,0,1-.75-1.8,2.42,2.42,0,0,1,.7-1.71A2.32,2.32,0,0,1,321,266.93Zm12.92-119.79a5.91,5.91,0,0,0-4.22,1.67,6.1,6.1,0,0,0,0,8.57,5.83,5.83,0,0,0,4.22,1.71,6,6,0,0,0,4.39-1.76,5.94,5.94,0,0,0,0-8.44A6,6,0,0,0,333.94,147.13Zm0,12.74a5.92,5.92,0,0,0-4.13,1.71A6,6,0,0,0,333.94,172a6.06,6.06,0,0,0,0-12.13Zm0,13a5.92,5.92,0,0,0-4.13,1.71,5.68,5.68,0,0,0-1.85,4.35,6,6,0,0,0,6,6,6,6,0,0,0,6.15-6,5.76,5.76,0,0,0-1.85-4.26A6,6,0,0,0,333.94,172.88Zm0,12.92a5.92,5.92,0,0,0-4.13,1.71,5.68,5.68,0,0,0-1.85,4.35,6,6,0,0,0,6,6,6,6,0,0,0,6.15-6,5.76,5.76,0,0,0-1.85-4.26A6,6,0,0,0,333.94,185.8Zm0,12.92a5.76,5.76,0,0,0-4.22,1.76,5.86,5.86,0,0,0-1.76,4.31,6,6,0,0,0,6,6,6,6,0,0,0,6.15-6,5.76,5.76,0,0,0-1.85-4.26A6,6,0,0,0,333.94,198.72Zm0,12.92a5.76,5.76,0,0,0-4.22,1.76,6.1,6.1,0,0,0,0,8.57,5.68,5.68,0,0,0,4.22,1.8,5.78,5.78,0,0,0,4.44-1.85,6,6,0,0,0,1.71-4.22,5.76,5.76,0,0,0-1.85-4.26A6,6,0,0,0,333.94,211.64Zm0,12.92a6,6,0,0,0-6,6,6,6,0,0,0,1.76,4.39,5.75,5.75,0,0,0,4.22,1.76,6.31,6.31,0,0,0,6.15-6.15,5.54,5.54,0,0,0-.48-2.24,6,6,0,0,0-1.36-1.93,6.9,6.9,0,0,0-2-1.32A5.74,5.74,0,0,0,333.94,224.56Zm0,12.92a5.69,5.69,0,0,0-4.22,1.8,6,6,0,0,0-1.76,4.35,6,6,0,0,0,8.31,5.49,6.84,6.84,0,0,0,2-1.32,6,6,0,0,0,1.36-1.93,5.53,5.53,0,0,0,.48-2.24,6.31,6.31,0,0,0-6.15-6.15Zm0,13a5.71,5.71,0,0,0-4.26,1.76,6.1,6.1,0,0,0,0,8.53,5.75,5.75,0,0,0,4.22,1.76,6,6,0,0,0,4.31-1.8,5.76,5.76,0,0,0,1.85-4.26,6.07,6.07,0,0,0-1.67-4.09A5.69,5.69,0,0,0,333.94,250.49Zm0,12.92a5.71,5.71,0,0,0-4.26,1.76,6.1,6.1,0,0,0,0,8.53,5.75,5.75,0,0,0,4.22,1.76,6,6,0,0,0,4.31-1.8,5.76,5.76,0,0,0,1.85-4.26,6.07,6.07,0,0,0-1.67-4.09A5.68,5.68,0,0,0,333.94,263.41Zm0-112.76a2.57,2.57,0,0,1,1.89.75,2.34,2.34,0,0,1,0,3.43,2.56,2.56,0,0,1-1.89.75,2.42,2.42,0,0,1-1.71-.7,2.44,2.44,0,0,1,0-3.52A2.43,2.43,0,0,1,333.94,150.65Zm0,12.74a2.7,2.7,0,0,1,2.64,2.64,2.43,2.43,0,0,1-.7,1.71,2.53,2.53,0,0,1-1.93.75,2.56,2.56,0,0,1-2.46-2.46,2.53,2.53,0,0,1,.75-1.93A2.43,2.43,0,0,1,333.94,163.39Zm0,13a2.61,2.61,0,0,1,1.85.75,2.39,2.39,0,0,1,.79,1.8,2.43,2.43,0,0,1-.7,1.71,2.53,2.53,0,0,1-1.93.75,2.56,2.56,0,0,1-2.46-2.46,2.48,2.48,0,0,1,2.46-2.55Zm0,12.92a2.61,2.61,0,0,1,1.85.75,2.39,2.39,0,0,1,.79,1.8,2.43,2.43,0,0,1-.7,1.71,2.53,2.53,0,0,1-1.93.75,2.56,2.56,0,0,1-2.46-2.46,2.48,2.48,0,0,1,2.46-2.55Zm0,12.92a2.61,2.61,0,0,1,1.85.75,2.39,2.39,0,0,1,.79,1.8,2.43,2.43,0,0,1-.7,1.71,2.53,2.53,0,0,1-1.93.75,2.56,2.56,0,0,1-2.46-2.46,2.45,2.45,0,0,1,.75-1.8A2.36,2.36,0,0,1,333.94,202.24Zm0,12.92a2.61,2.61,0,0,1,1.85.75,2.39,2.39,0,0,1,.79,1.8,2.58,2.58,0,0,1-.7,1.76,2.46,2.46,0,0,1-1.93.79,2.35,2.35,0,0,1-1.71-.75,2.55,2.55,0,0,1,0-3.6A2.36,2.36,0,0,1,333.94,215.16Zm0,12.92a2.61,2.61,0,0,1,1.85.75,2.3,2.3,0,0,1,.79,1.71,2.7,2.7,0,0,1-2.64,2.64,2.35,2.35,0,0,1-1.71-.75,2.55,2.55,0,0,1-.75-1.89,2.56,2.56,0,0,1,2.46-2.46Zm0,12.92a2.7,2.7,0,0,1,2.64,2.64,2.29,2.29,0,0,1-.79,1.71,2.6,2.6,0,0,1-1.85.75,2.56,2.56,0,0,1-2.46-2.46,2.56,2.56,0,0,1,.75-1.89A2.36,2.36,0,0,1,333.94,241Zm0,13a2.53,2.53,0,0,1,1.93.75,2.43,2.43,0,0,1,.7,1.71,2.39,2.39,0,0,1-.79,1.8,2.6,2.6,0,0,1-1.85.75,2.35,2.35,0,0,1-1.71-.75,2.45,2.45,0,0,1-.75-1.8,2.42,2.42,0,0,1,.7-1.71A2.32,2.32,0,0,1,333.94,254Zm0,12.92a2.53,2.53,0,0,1,1.93.75,2.43,2.43,0,0,1,.7,1.71,2.39,2.39,0,0,1-.79,1.8,2.6,2.6,0,0,1-1.85.75,2.35,2.35,0,0,1-1.71-.75,2.45,2.45,0,0,1-.75-1.8,2.42,2.42,0,0,1,.7-1.71A2.32,2.32,0,0,1,333.94,266.93Zm13-119.79a6,6,0,0,0-4.35,1.67,6.21,6.21,0,0,0,0,8.57,6.26,6.26,0,0,0,8.66,0,5.94,5.94,0,0,0,0-8.44A5.86,5.86,0,0,0,346.95,147.13ZM372.79,247a9.32,9.32,0,0,0-3.87.79,9.69,9.69,0,0,0-3,2.11,8.92,8.92,0,0,0-1.93,3,9.83,9.83,0,0,0-.66,3.56,10.08,10.08,0,0,0,1.05,4.57,9.28,9.28,0,0,0-4.48-1.14,8.81,8.81,0,0,0-6.5,2.55,10,10,0,0,0-2.86-1.85,8.88,8.88,0,0,0-3.56-.7,9.46,9.46,0,0,0-4.57,1.14,9.23,9.23,0,0,0,1.23-4.57A9.43,9.43,0,0,0,341,250a9,9,0,0,0,1.93-2.9,8.75,8.75,0,0,0,.7-3.43,8.53,8.53,0,0,0-.75-3.52,10.86,10.86,0,0,0-2-3,10.65,10.65,0,0,0,2-3,8.83,8.83,0,0,0,.75-3.56,8.44,8.44,0,0,0-.7-3.38A9.15,9.15,0,0,0,341,224.3a9.33,9.33,0,0,0,2.64-6.59,9.12,9.12,0,0,0-2.64-6.42,8.84,8.84,0,0,0,2.64-6.5,9.12,9.12,0,0,0-2.64-6.42,8.84,8.84,0,0,0,2.64-6.5,9.12,9.12,0,0,0-2.64-6.42,8.84,8.84,0,0,0,2.64-6.5,9.12,9.12,0,0,0-2.64-6.42,8.84,8.84,0,0,0,2.64-6.5,8.3,8.3,0,0,0-1.23-4.39,10.82,10.82,0,0,0,4.57,1,9.25,9.25,0,0,0,6.42-2.37,9.36,9.36,0,0,0,6.5,2.37,9.55,9.55,0,0,0,4.48-1.05A9.69,9.69,0,0,0,366,172.71a9.1,9.1,0,0,0,3,2.07,9.55,9.55,0,0,0,3.78.75,9.73,9.73,0,0,0,4.57-1.05,8.45,8.45,0,0,0-1.23,4.48,9.83,9.83,0,0,0,.66,3.56,8.32,8.32,0,0,0,1.89,2.94,9.4,9.4,0,0,0-1.89,3,9.26,9.26,0,0,0-.66,3.43,9.39,9.39,0,0,0,2.55,6.5,9.4,9.4,0,0,0-1.89,3,9.26,9.26,0,0,0-.66,3.43,9.39,9.39,0,0,0,2.55,6.5,9.4,9.4,0,0,0-1.89,3,9.61,9.61,0,0,0,1.89,10,9.53,9.53,0,0,0-1.89,2.94,8.71,8.71,0,0,0-.66,3.3,11.15,11.15,0,0,0,.57,3.56,8.16,8.16,0,0,0,1.8,3,9.79,9.79,0,0,0-2.37,6.5,9.06,9.06,0,0,0,1.23,4.48A9.46,9.46,0,0,0,372.79,247Zm-25.84,16.44a5.71,5.71,0,0,0-4.39,1.8,6,6,0,0,0-1.67,4.17,6.06,6.06,0,0,0,1.67,4.26,5.71,5.71,0,0,0,4.39,1.8,6.15,6.15,0,0,0,6.06-6.06,6.07,6.07,0,0,0-1.67-4.09A5.58,5.58,0,0,0,346.95,263.41Zm0-112.76a2.46,2.46,0,0,1,1.8.75,2.34,2.34,0,0,1,0,3.43,2.46,2.46,0,0,1-1.8.75,2.49,2.49,0,0,1-1.85-.7,2.55,2.55,0,0,1,0-3.52A2.5,2.5,0,0,1,346.95,150.65Zm0,116.28a2.48,2.48,0,0,1,2.55,2.46,2.55,2.55,0,0,1-2.55,2.55,2.42,2.42,0,0,1-1.85-.75,2.53,2.53,0,0,1-.7-1.8,2.48,2.48,0,0,1,2.55-2.46Zm15.12-15.21a19.08,19.08,0,0,0,2.15-2.55,8.25,8.25,0,0,1,2.5-2.29l7-7q.7-.7,1.27-1.23a6.93,6.93,0,0,0,1.19-1.58,9.12,9.12,0,0,1-1.45-3.12,14.26,14.26,0,0,1-.4-3.38,10.52,10.52,0,0,1,.53-3.16,11.51,11.51,0,0,1,1.49-3.08,11,11,0,0,1-2-6.59,11.48,11.48,0,0,1,.48-3.3,10.66,10.66,0,0,1,1.54-3.12,11.33,11.33,0,0,1-1.49-3.12,11.29,11.29,0,0,1,0-6.68,10.66,10.66,0,0,1,1.54-3.12,11.33,11.33,0,0,1-1.49-3.12,11.46,11.46,0,0,1-.53-3.38,11.19,11.19,0,0,1,.53-3.3,11.35,11.35,0,0,1,1.49-3.12,10.85,10.85,0,0,1-2-6.5v-1.76a4.05,4.05,0,0,1-.79.09h-.79a11.43,11.43,0,0,1-4.53-.88A10.76,10.76,0,0,1,364.7,174a11,11,0,0,1-2.33-3.6,11.47,11.47,0,0,1-.83-4.35v-1.76a4.23,4.23,0,0,1-.83.09h-.83a13.21,13.21,0,0,1-3.47-.44,9.8,9.8,0,0,1-3-1.41,3.85,3.85,0,0,1-.83.66,3.4,3.4,0,0,0-.75.57,10.42,10.42,0,0,1,2.11,6.42,10.31,10.31,0,0,1-2.11,6.5,10.42,10.42,0,0,1,2.11,6.42,10.31,10.31,0,0,1-2.11,6.5,10.42,10.42,0,0,1,2.11,6.42,10.31,10.31,0,0,1-2.11,6.5,10.42,10.42,0,0,1,2.11,6.42,10.64,10.64,0,0,1-2.2,6.59,9.67,9.67,0,0,1,2.2,6.24,10.14,10.14,0,0,1-2.29,6.59,10,10,0,0,1,2.29,6.5,9.79,9.79,0,0,1-2.2,6.33,10.47,10.47,0,0,1,1.67,3.12,10.91,10.91,0,0,1,.53,3.38v1.1a3.19,3.19,0,0,1-.18,1,8.94,8.94,0,0,1,1-.13q.57,0,1,0a10,10,0,0,1,3.43.57A11.48,11.48,0,0,1,362.06,251.72Zm-2.2-104.59a5.87,5.87,0,0,0-4.26,1.67,6,6,0,1,0,8.53,0A5.87,5.87,0,0,0,359.87,147.13Zm0,116.28a5.57,5.57,0,0,0-4.35,1.8,6,6,0,0,0-1.63,4.17,6.15,6.15,0,0,0,1.63,4.26,5.57,5.57,0,0,0,4.35,1.8,5.69,5.69,0,0,0,4.22-1.8,5.9,5.9,0,0,0,1.76-4.26,6,6,0,0,0-1.67-4.17A5.61,5.61,0,0,0,359.87,263.41Zm0-112.76a2.4,2.4,0,1,1-1.76.7A2.39,2.39,0,0,1,359.87,150.65Zm0,116.28a2.32,2.32,0,0,1,1.76.75,2.43,2.43,0,0,1,.7,1.71,2.46,2.46,0,0,1-.75,1.8,2.36,2.36,0,0,1-1.71.75,2.28,2.28,0,0,1-1.8-.75,2.63,2.63,0,0,1-.66-1.8,2.52,2.52,0,0,1,.66-1.71A2.28,2.28,0,0,1,359.87,266.93Zm12.92-119.79a5.87,5.87,0,0,0-4.26,1.67,6,6,0,1,0,8.53,0A5.87,5.87,0,0,0,372.79,147.13Zm0,12.74a5.69,5.69,0,0,0-4.22,1.8,6,6,0,0,0-1.76,4.35,5.83,5.83,0,0,0,1.71,4.22,6,6,0,0,0,8.53,0,5.83,5.83,0,0,0,1.71-4.22,6,6,0,0,0-1.76-4.35A5.69,5.69,0,0,0,372.79,159.88Zm0,90.62a5.57,5.57,0,0,0-4.35,1.8,6,6,0,0,0-1.63,4.17,6.15,6.15,0,0,0,1.63,4.26,5.57,5.57,0,0,0,4.35,1.8,5.69,5.69,0,0,0,4.22-1.8,5.9,5.9,0,0,0,1.76-4.26,6,6,0,0,0-1.67-4.17A5.61,5.61,0,0,0,372.79,250.49Zm0,12.92a5.57,5.57,0,0,0-4.35,1.8,6,6,0,0,0-1.63,4.17,6.15,6.15,0,0,0,1.63,4.26,5.57,5.57,0,0,0,4.35,1.8,5.69,5.69,0,0,0,4.22-1.8,5.9,5.9,0,0,0,1.76-4.26,6,6,0,0,0-1.67-4.17A5.61,5.61,0,0,0,372.79,263.41Zm0-112.76a2.4,2.4,0,1,1-1.76.7A2.39,2.39,0,0,1,372.79,150.65Zm0,12.74a2.36,2.36,0,0,1,1.71.75,2.57,2.57,0,0,1,.75,1.89,2.43,2.43,0,0,1-.7,1.71,2.44,2.44,0,0,1-3.52,0,2.42,2.42,0,0,1-.7-1.71,2.56,2.56,0,0,1,.75-1.89A2.36,2.36,0,0,1,372.79,163.39Zm0,90.62a2.32,2.32,0,0,1,1.76.75,2.43,2.43,0,0,1,.7,1.71,2.46,2.46,0,0,1-.75,1.8,2.36,2.36,0,0,1-1.71.75,2.28,2.28,0,0,1-1.8-.75,2.63,2.63,0,0,1-.66-1.8,2.52,2.52,0,0,1,.66-1.71A2.28,2.28,0,0,1,372.79,254Zm0,12.92a2.32,2.32,0,0,1,1.76.75,2.43,2.43,0,0,1,.7,1.71,2.46,2.46,0,0,1-.75,1.8,2.36,2.36,0,0,1-1.71.75,2.28,2.28,0,0,1-1.8-.75,2.63,2.63,0,0,1-.66-1.8,2.52,2.52,0,0,1,.66-1.71A2.28,2.28,0,0,1,372.79,266.93Zm12.92-107.05a5.76,5.76,0,0,0-4.26,1.85,6,6,0,0,0-1.8,4.31,5.87,5.87,0,0,0,1.71,4.17,6.1,6.1,0,0,0,8.61,0,5.83,5.83,0,0,0,1.71-4.22,6,6,0,0,0-1.76-4.35A5.69,5.69,0,0,0,385.71,159.88Zm0,13a6,6,0,0,0-4.35,10.24,6.1,6.1,0,0,0,8.61,0,6.1,6.1,0,0,0,0-8.53A5.76,5.76,0,0,0,385.71,172.88Zm0,12.92A6,6,0,0,0,381.36,196a6.1,6.1,0,0,0,8.61,0,6.1,6.1,0,0,0,0-8.53A5.76,5.76,0,0,0,385.71,185.8Zm0,12.92a5.49,5.49,0,0,0-4.44,1.93,6.31,6.31,0,0,0-1.63,4.13,5.87,5.87,0,0,0,1.71,4.17,6.1,6.1,0,0,0,8.61,0,5.83,5.83,0,0,0,1.71-4.22,5.9,5.9,0,0,0-1.76-4.26A5.69,5.69,0,0,0,385.71,198.72Zm0,12.92a5.49,5.49,0,0,0-4.44,1.93,6.31,6.31,0,0,0-1.63,4.13,6,6,0,0,0,1.71,4.22,6,6,0,0,0,8.61,0,6,6,0,0,0,1.71-4.26,5.9,5.9,0,0,0-1.76-4.26A5.69,5.69,0,0,0,385.71,211.64Zm0,12.92a5.62,5.62,0,0,0-4.35,1.89,6,6,0,0,0-1.71,4.09,6.36,6.36,0,0,0,1.63,4.26,5.54,5.54,0,0,0,4.44,1.89,5.62,5.62,0,0,0,4.22-1.85,6,6,0,0,0,1.76-4.31,6,6,0,0,0-6-6Zm0,12.92a5.49,5.49,0,0,0-4.44,1.93,6.42,6.42,0,0,0-1.63,4.22,6,6,0,0,0,1.71,4.09,5.61,5.61,0,0,0,4.35,1.89,6,6,0,0,0,6-6,6.05,6.05,0,0,0-1.76-4.31A5.62,5.62,0,0,0,385.71,237.48Zm0,13a5.55,5.55,0,0,0-4.44,1.89,6.15,6.15,0,0,0-1.63,4.09,6.25,6.25,0,0,0,1.63,4.17,5.54,5.54,0,0,0,4.44,1.89,5.69,5.69,0,0,0,4.22-1.8,5.9,5.9,0,0,0,1.76-4.26,6,6,0,0,0-1.67-4.17A5.61,5.61,0,0,0,385.71,250.49Zm0-87.1a2.36,2.36,0,0,1,1.71.75,2.57,2.57,0,0,1,.75,1.89,2.43,2.43,0,0,1-.7,1.71,2.31,2.31,0,0,1-1.76.75,2.48,2.48,0,0,1-2.55-2.46,2.6,2.6,0,0,1,.75-1.85A2.39,2.39,0,0,1,385.71,163.39Zm0,13a2.36,2.36,0,0,1,1.71.75,2.46,2.46,0,0,1,.75,1.8,2.43,2.43,0,0,1-.7,1.71,2.31,2.31,0,0,1-1.76.75,2.48,2.48,0,0,1-2.55-2.46,2.55,2.55,0,0,1,2.55-2.55Zm0,12.92a2.36,2.36,0,0,1,1.71.75,2.46,2.46,0,0,1,.75,1.8,2.43,2.43,0,0,1-.7,1.71,2.31,2.31,0,0,1-1.76.75,2.48,2.48,0,0,1-2.55-2.46,2.55,2.55,0,0,1,2.55-2.55Zm0,12.92a2.36,2.36,0,0,1,1.71.75,2.46,2.46,0,0,1,.75,1.8,2.43,2.43,0,0,1-.7,1.71,2.31,2.31,0,0,1-1.76.75,2.48,2.48,0,0,1-2.55-2.46,2.68,2.68,0,0,1,.66-1.76A2.32,2.32,0,0,1,385.71,202.24Zm0,12.92a2.36,2.36,0,0,1,1.71.75,2.46,2.46,0,0,1,.75,1.8,2.53,2.53,0,0,1-.7,1.8,2.31,2.31,0,0,1-1.76.75,2.35,2.35,0,0,1-1.85-.79,2.58,2.58,0,0,1-.7-1.76,2.68,2.68,0,0,1,.66-1.76A2.32,2.32,0,0,1,385.71,215.16Zm0,12.92a2.56,2.56,0,0,1,2.46,2.46,2.61,2.61,0,0,1-.75,1.85,2.3,2.3,0,0,1-1.71.79,2.26,2.26,0,0,1-1.89-.83,2.85,2.85,0,0,1-.66-1.8,2.48,2.48,0,0,1,2.55-2.46Zm0,12.92a2.3,2.3,0,0,1,1.71.79,2.61,2.61,0,0,1,.75,1.85,2.56,2.56,0,0,1-2.46,2.46,2.48,2.48,0,0,1-2.55-2.46,2.85,2.85,0,0,1,.66-1.8A2.27,2.27,0,0,1,385.71,241Zm0,13a2.32,2.32,0,0,1,1.76.75,2.43,2.43,0,0,1,.7,1.71,2.46,2.46,0,0,1-.75,1.8,2.36,2.36,0,0,1-1.71.75,2.32,2.32,0,0,1-1.89-.79,2.68,2.68,0,0,1-.66-1.76,2.52,2.52,0,0,1,.66-1.71A2.39,2.39,0,0,1,385.71,254Zm12.92-81.12a6,6,0,0,0-4.35,10.24,6.1,6.1,0,0,0,8.61,0,6.1,6.1,0,0,0,0-8.53A5.76,5.76,0,0,0,398.63,172.88Zm0,12.92A6,6,0,0,0,394.28,196a6.1,6.1,0,0,0,8.61,0,6.1,6.1,0,0,0,0-8.53A5.76,5.76,0,0,0,398.63,185.8Zm0,12.92a5.53,5.53,0,0,0-4.39,1.93,6.23,6.23,0,0,0-1.67,4.13,5.87,5.87,0,0,0,1.71,4.17,6.1,6.1,0,0,0,8.61,0,5.83,5.83,0,0,0,1.71-4.22,5.9,5.9,0,0,0-1.76-4.26A5.69,5.69,0,0,0,398.63,198.72Zm0,12.92a5.53,5.53,0,0,0-4.39,1.93,6.23,6.23,0,0,0-1.67,4.13,6,6,0,0,0,1.71,4.22,6,6,0,0,0,8.61,0,6,6,0,0,0,1.71-4.26,5.9,5.9,0,0,0-1.76-4.26A5.69,5.69,0,0,0,398.63,211.64Zm0,12.92a5.62,5.62,0,0,0-4.35,1.89,6,6,0,0,0-1.71,4.09,6.27,6.27,0,0,0,1.67,4.26,5.9,5.9,0,0,0,8.61,0,6,6,0,0,0,1.76-4.31,6,6,0,0,0-6-6Zm0,12.92a5.53,5.53,0,0,0-4.39,1.93,6.33,6.33,0,0,0-1.67,4.22,6,6,0,0,0,1.71,4.09,5.61,5.61,0,0,0,4.35,1.89,6,6,0,0,0,6-6,6.05,6.05,0,0,0-1.76-4.31A5.62,5.62,0,0,0,398.63,237.48Zm0-61.08a2.36,2.36,0,0,1,1.71.75,2.46,2.46,0,0,1,.75,1.8,2.43,2.43,0,0,1-.7,1.71,2.31,2.31,0,0,1-1.76.75,2.48,2.48,0,0,1-2.55-2.46,2.55,2.55,0,0,1,2.55-2.55Zm0,12.92a2.36,2.36,0,0,1,1.71.75,2.46,2.46,0,0,1,.75,1.8,2.43,2.43,0,0,1-.7,1.71,2.31,2.31,0,0,1-1.76.75,2.48,2.48,0,0,1-2.55-2.46,2.55,2.55,0,0,1,2.55-2.55Zm0,12.92a2.36,2.36,0,0,1,1.71.75,2.46,2.46,0,0,1,.75,1.8,2.43,2.43,0,0,1-.7,1.71,2.31,2.31,0,0,1-1.76.75,2.48,2.48,0,0,1-2.55-2.46,2.58,2.58,0,0,1,.7-1.76A2.35,2.35,0,0,1,398.63,202.24Zm0,12.92a2.36,2.36,0,0,1,1.71.75,2.46,2.46,0,0,1,.75,1.8,2.53,2.53,0,0,1-.7,1.8,2.31,2.31,0,0,1-1.76.75,2.35,2.35,0,0,1-1.85-.79,2.55,2.55,0,0,1,0-3.52A2.35,2.35,0,0,1,398.63,215.16Zm0,12.92a2.56,2.56,0,0,1,2.46,2.46,2.61,2.61,0,0,1-.75,1.85,2.35,2.35,0,0,1-3.56,0,2.74,2.74,0,0,1-.7-1.8,2.48,2.48,0,0,1,2.55-2.46Zm0,12.92a2.3,2.3,0,0,1,1.71.79,2.61,2.61,0,0,1,.75,1.85,2.56,2.56,0,0,1-2.46,2.46,2.48,2.48,0,0,1-2.55-2.46,2.74,2.74,0,0,1,.7-1.8A2.3,2.3,0,0,1,398.63,241Z" transform="translate(-40.82 -105.68)"/></svg>